<?xml version="1.0" encoding="iso-8859-1"?>
<!-- Uploaded to: SVG Repo, www.svgrepo.com, Generator: SVG Repo Mixer Tools -->
<svg fill="#000000" height="800px" width="800px" version="1.1" id="Layer_1" xmlns="http://www.w3.org/2000/svg" xmlns:xlink="http://www.w3.org/1999/xlink" 
	 viewBox="0 0 512 512" xml:space="preserve">
<g>
	<g>
		<path d="M473.216,2.491L21.272,280.605c-11.676,7.185-10.156,24.635,2.549,29.717l163.217,65.296v119.669
			c0,14.355,17.002,22.019,27.759,12.5l97.783-86.554L473.924,509.9c11.106,6.1,24.735-1.943,24.735-14.631V16.709
			C498.659,3.695,484.319-4.341,473.216,2.491z M198.437,344.218L67.033,291.65L408.907,81.269L198.437,344.218z M296.551,390.834
			l-76.125,67.383v-88.042l193.156-241.316L296.551,390.834z M465.271,467.047l-133.439-73.33L465.271,95.008V467.047z"/>
	</g>
</g>
</svg>